<?xml version="1.0" standalone="no"?><!DOCTYPE svg PUBLIC "-//W3C//DTD SVG 1.1//EN" "http://www.w3.org/Graphics/SVG/1.1/DTD/svg11.dtd"><svg t="1581653100269" class="icon" viewBox="0 0 1024 1024" version="1.1" xmlns="http://www.w3.org/2000/svg" p-id="815" xmlns:xlink="http://www.w3.org/1999/xlink" width="200" height="200"><defs><style type="text/css"></style></defs><path d="M153.6 358.4h716.8v307.2H153.6z" fill="#20C997" p-id="816"></path><path d="M845.824 614.4V409.6h-665.6v204.8h665.6z m0 102.4h-665.6v102.4a102.4 102.4 0 0 0 102.4 102.4h460.8a51.2 51.2 0 0 1 0 102.4h-460.8a204.8 204.8 0 0 1-204.8-204.8V204.8a204.8 204.8 0 0 1 204.8-204.8h460.8a204.8 204.8 0 0 1 204.8 204.8v614.4a51.2 51.2 0 0 1-102.4 0v-102.4z m0-409.6V204.8a102.4 102.4 0 0 0-102.4-102.4h-460.8a102.4 102.4 0 0 0-102.4 102.4v102.4h665.6z m-153.6 563.2a51.2 51.2 0 1 1 0-102.4 51.2 51.2 0 0 1 0 102.4z m-358.4-716.8h102.4a51.2 51.2 0 1 1 0 102.4h-102.4a51.2 51.2 0 1 1 0-102.4z m0 307.2h102.4a51.2 51.2 0 1 1 0 102.4h-102.4a51.2 51.2 0 0 1 0-102.4z" fill="#2C6DD2" p-id="817"></path></svg>