<?xml version="1.0" standalone="no"?><!DOCTYPE svg PUBLIC "-//W3C//DTD SVG 1.1//EN" "http://www.w3.org/Graphics/SVG/1.1/DTD/svg11.dtd"><svg t="1581653216147" class="icon" viewBox="0 0 1024 1024" version="1.1" xmlns="http://www.w3.org/2000/svg" p-id="1311" xmlns:xlink="http://www.w3.org/1999/xlink" width="200" height="200"><defs><style type="text/css"></style></defs><path d="M313.2416 0H716.8a307.2 307.2 0 0 1 307.2 307.2v198.0928A484.2496 484.2496 0 0 1 793.6 563.2 486.4 486.4 0 0 1 313.2416 0z" fill="#20C997" p-id="1312"></path><path d="M909.824 785.5104a51.2 51.2 0 1 1 95.5904 36.7616A307.3024 307.3024 0 0 1 716.8 1024H307.2a307.2 307.2 0 0 1-307.2-307.2V307.2a307.2 307.2 0 0 1 307.2-307.2h409.6a307.2 307.2 0 0 1 307.2 307.2v204.8a51.2 51.2 0 0 1-102.4 0V307.2a204.8 204.8 0 0 0-204.8-204.8H307.2a204.8 204.8 0 0 0-204.8 204.8v409.6a204.8 204.8 0 0 0 204.8 204.8h409.6a204.9024 204.9024 0 0 0 193.024-136.0896zM299.1104 628.1728l-54.528 67.328a51.2 51.2 0 1 1-79.5648-64.4608l88.832-109.6704a51.2 51.2 0 0 1 74.4448-5.4784l60.416 55.5008L478.208 291.584c14.592-45.5168 78.0288-48.0256 96.1536-3.7888l132.3008 323.1744 69.632-88.9344a51.2 51.2 0 0 1 80.64 63.1296l-124.0064 158.3104a51.2 51.2 0 0 1-87.6544-12.1856L532.8896 456.704 461.824 678.8608a51.2 51.2 0 0 1-83.4048 22.1184l-79.2576-72.8064z" fill="#2C6DD2" p-id="1313"></path></svg>