<?xml version="1.0" standalone="no"?><!DOCTYPE svg PUBLIC "-//W3C//DTD SVG 1.1//EN" "http://www.w3.org/Graphics/SVG/1.1/DTD/svg11.dtd"><svg t="1581653233066" class="icon" viewBox="0 0 1024 1024" version="1.1" xmlns="http://www.w3.org/2000/svg" p-id="1435" xmlns:xlink="http://www.w3.org/1999/xlink" width="200" height="200"><defs><style type="text/css"></style></defs><path d="M309.4016 132.4544L481.5872 55.296l207.4112 45.6704 137.984 150.4768 39.3216 408.7808A486.4 486.4 0 0 1 309.4528 132.4544z" fill="#20C997" p-id="1436"></path><path d="M102.4 921.6V409.6a409.6 409.6 0 1 1 819.2 0v324.352a51.2 51.2 0 1 1-102.4 0V409.6A307.2 307.2 0 1 0 204.8 409.6v512h768a51.2 51.2 0 0 1 0 102.4H51.2a51.2 51.2 0 0 1 0-102.4h51.2z m284.16-350.72a51.2 51.2 0 0 1-12.4928-82.5856l199.5776-192.3584a51.2 51.2 0 1 1 71.0656 73.728L497.0496 512l135.2192 68.3008a51.2 51.2 0 0 1 9.3184 85.3504l-199.6288 162.9184a51.2 51.2 0 1 1-64.7168-79.36l138.5472-113.0496-129.28-65.28z" fill="#2C6DD2" p-id="1437"></path></svg>