<?xml version="1.0" standalone="no"?><!DOCTYPE svg PUBLIC "-//W3C//DTD SVG 1.1//EN" "http://www.w3.org/Graphics/SVG/1.1/DTD/svg11.dtd"><svg t="1581653661281" class="icon" viewBox="0 0 1024 1024" version="1.1" xmlns="http://www.w3.org/2000/svg" p-id="1560" xmlns:xlink="http://www.w3.org/1999/xlink" width="200" height="200"><defs><style type="text/css"></style></defs><path d="M523.9808 132.9152c-3.3792-2.0992-14.7968-2.0992-18.176 0L213.4016 315.2896l292.352 182.4256c3.4304 2.0992 14.848 2.0992 18.2272 0l292.4032-182.4256-292.352-182.3744z m380.0576 116.3776c52.1216 32.512 52.1216 99.5328 0 132.0448l-325.8368 203.264c-36.608 22.784-90.0096 22.784-126.6176 0l-325.8368-203.264c-52.1216-32.512-52.1216-99.5328 0-132.096L451.584 46.08c36.608-22.784 90.0096-22.784 126.6176 0l325.8368 203.264z m-55.3984 242.688a51.2 51.2 0 1 1 54.1696 86.8352l-325.8368 203.264c-36.5568 22.784-90.0096 22.784-126.5664 0l-325.8368-203.264A51.2 51.2 0 1 1 178.688 491.9296l325.8368 203.264c3.4304 2.0992 14.848 2.0992 18.2272 0l325.8368-203.264z m-0.768 204.8a51.2 51.2 0 0 1 54.2208 86.8352l-325.8368 203.264c-36.608 22.784-90.0096 22.784-126.6176 0l-325.8368-203.264a51.2 51.2 0 1 1 54.2208-86.8864l325.8368 203.264c3.3792 2.0992 14.7968 2.0992 18.176 0l325.8368-203.264z" fill="#2C6DD2" p-id="1561"></path><path d="M532.0704 209.152l148.8384 95.0272c9.1136 5.8368 9.1136 15.3088 0 21.1456L532.0704 420.352a33.4336 33.4336 0 0 1-33.0752 0L350.1568 325.3248c-9.1648-5.8368-9.1648-15.3088 0-21.1456l148.8384-95.0272a33.4336 33.4336 0 0 1 33.0752 0z" fill="#20C997" p-id="1562"></path></svg>