<?xml version="1.0" standalone="no"?><!DOCTYPE svg PUBLIC "-//W3C//DTD SVG 1.1//EN" "http://www.w3.org/Graphics/SVG/1.1/DTD/svg11.dtd"><svg t="1581653121231" class="icon" viewBox="0 0 1024 1024" version="1.1" xmlns="http://www.w3.org/2000/svg" p-id="1063" xmlns:xlink="http://www.w3.org/1999/xlink" width="200" height="200"><defs><style type="text/css"></style></defs><path d="M953.2416 866.3552C647.168 831.2832 409.6 571.392 409.6 256c0-71.8336 12.288-140.7488 34.9696-204.8H716.8a256 256 0 0 1 256 256v460.8c0 34.816-6.9632 68.096-19.5584 98.3552z" fill="#20C997" p-id="1064"></path><path d="M55.4496 768h104.6016c22.7328 88.32 102.912 153.6 198.3488 153.6h358.4a204.8 204.8 0 0 0 204.8-204.8V307.2a204.8 204.8 0 0 0-204.8-204.8H358.4a204.9024 204.9024 0 0 0-198.3488 153.6H55.4496A307.3024 307.3024 0 0 1 358.4 0h358.4a307.2 307.2 0 0 1 307.2 307.2v409.6a307.2 307.2 0 0 1-307.2 307.2H358.4a307.3024 307.3024 0 0 1-302.9504-256zM358.4 256h358.4a51.2 51.2 0 0 1 0 102.4H358.4a51.2 51.2 0 1 1 0-102.4z m0 204.8h358.4a51.2 51.2 0 0 1 0 102.4H358.4a51.2 51.2 0 0 1 0-102.4z m0 204.8h204.8a51.2 51.2 0 0 1 0 102.4H358.4a51.2 51.2 0 0 1 0-102.4zM51.2 358.4h102.4a51.2 51.2 0 1 1 0 102.4H51.2a51.2 51.2 0 1 1 0-102.4z m0 204.8h102.4a51.2 51.2 0 0 1 0 102.4H51.2a51.2 51.2 0 0 1 0-102.4z" fill="#2C6DD2" p-id="1065"></path></svg>